D:/PROGRAMMES/Krita (x64)/bin/ffmpeg.exe -hide_banner -y -y -r 11 -start_number 0 -start_number_range 1 -i C:/Users/asus/Downloads/hangman/assets/frame%04d.png -i C:/Users/asus/Downloads/hangman/assets/KritaTempPalettegen_%06d.png -lavfi [0:v][1:v]paletteuse=dither=sierra2_4a:diff_mode=none -f gif -loop 0 -gifflags +transdiff C:/Users/asus/Downloads/hangman/assets/1_lives.gif
=====================================================
Input #0, image2, from 'C:/Users/asus/Downloads/hangman/assets/frame%04d.png':
  Duration: 00:00:02.40, start: 0.000000, bitrate: N/A
  Stream #0:0: Video: png, rgba(pc), 1080x1080 [SAR 11811:11811 DAR 1:1], 25 fps, 25 tbr, 25 tbn, 25 tbc
Input #1, image2, from 'C:/Users/asus/Downloads/hangman/assets/KritaTempPalettegen_%06d.png':
  Duration: 00:00:00.04, start: 0.000000, bitrate: N/A
  Stream #1:0: Video: png, rgba(pc), 16x16 [SAR 1:1 DAR 1:1], 25 fps, 25 tbr, 25 tbn, 25 tbc
Stream mapping:
  Stream #0:0 (png) -> paletteuse:default
  Stream #1:0 (png) -> paletteuse:palette
  paletteuse -> Stream #0:0 (gif)
Press [q] to stop, [?] for help
[image2 @ 000001cd31b3ec00] Thread message queue blocking; consider raising the thread_queue_size option (current value: 8)
Output #0, gif, to 'C:/Users/asus/Downloads/hangman/assets/1_lives.gif':
  Metadata:
    encoder         : Lavf58.76.100
  Stream #0:0: Video: gif, pal8(pc, gbr/unknown/unknown, progressive), 1080x1080 [SAR 1:1 DAR 1:1], q=2-31, 200 kb/s, 11 fps, 100 tbn (default)
    Metadata:
      encoder         : Lavc58.134.100 gif
frame=    1 fps=0.0 q=-0.0 size=       0kB time=00:00:00.01 bitrate=   0.0kbits/s speed=0.195x    frame=   12 fps=0.0 q=-0.0 size=     217kB time=00:00:01.01 bitrate=1761.9kbits/s speed=1.78x    frame=   24 fps= 22 q=-0.0 size=     256kB time=00:00:02.10 bitrate= 998.6kbits/s speed=1.96x    frame=   37 fps= 23 q=-0.0 size=     512kB time=00:00:03.28 bitrate=1278.8kbits/s speed=2.06x    frame=   50 fps= 24 q=-0.0 size=     768kB time=00:00:04.46 bitrate=1410.6kbits/s speed=2.11x    frame=   60 fps= 24 q=-0.0 Lsize=    1180kB time=00:00:05.37 bitrate=1799.5kbits/s speed=2.11x    
video:1180kB audio:0kB subtitle:0kB other streams:0kB global headers:0kB muxing overhead: 0.001656%
